<?xml version="1.0" encoding="iso-8859-1"?>
<!-- Uploaded to: SVG Repo, www.svgrepo.com, Generator: SVG Repo Mixer Tools -->
<svg fill="#000000" height="800px" width="800px" version="1.1" id="Layer_1" xmlns="http://www.w3.org/2000/svg" xmlns:xlink="http://www.w3.org/1999/xlink" 
	 viewBox="0 0 511.882 511.882" xml:space="preserve">
<g>
	<g>
		<g>
			<path d="M179.135,392.416h68.267c4.719,0,8.533,3.814,8.533,8.533s-3.814,8.533-8.533,8.533h-68.267v17.067h42.667
				c4.719,0,8.533,3.814,8.533,8.533c0,4.719-3.814,8.533-8.533,8.533h-42.667v25.6c0,4.719,3.823,8.533,8.533,8.533h12.809
				l15.352,20.471c6.409,8.55,16.614,13.662,27.307,13.662h25.6c10.692,0,20.907-5.111,27.307-13.662l15.36-20.471h12.8
				c4.719,0,8.533-3.814,8.533-8.533v-25.6h-68.267c-4.71,0-8.533-3.814-8.533-8.533c0-4.719,3.823-8.533,8.533-8.533h68.267
				v-17.067h-42.667c-4.71,0-8.533-3.814-8.533-8.533s3.823-8.533,8.533-8.533h42.667v-17.067h-153.6V392.416z M290.068,477.749
				l-7.68,10.24c-3.2,4.275-8.303,6.827-13.653,6.827h-25.6c-5.342,0-10.445-2.551-13.653-6.827l-7.68-10.24H290.068z"/>
			<path d="M425.538,155.213C416.757,74.761,352.032,9.907,271.631,0.99c-4.804-0.538-9.873-0.862-15.898-0.99
				c-5.615,0.128-10.684,0.452-15.497,0.99C159.844,9.907,95.119,74.761,86.347,155.213
				c-5.965,54.673,13.252,107.742,52.719,145.596c18.142,17.399,31.181,37.47,37.547,57.472h158.652
				c6.366-20.002,19.405-40.073,37.547-57.472C412.277,262.955,431.495,209.886,425.538,155.213z M255.938,281.481
				c-61.167,0-110.933-49.766-110.933-110.933S194.771,59.614,255.938,59.614s110.933,49.766,110.933,110.933
				S317.105,281.481,255.938,281.481z"/>
			<path d="M255.938,76.681c-51.755,0-93.867,42.112-93.867,93.867c0,51.755,42.112,93.867,93.867,93.867
				c51.755,0,93.867-42.112,93.867-93.867C349.805,118.793,307.693,76.681,255.938,76.681z M307.138,179.081h-42.667v42.667
				c0,4.719-3.823,8.533-8.533,8.533c-4.71,0-8.533-3.814-8.533-8.533v-42.667h-42.667c-4.71,0-8.533-3.814-8.533-8.533
				s3.823-8.533,8.533-8.533h42.667v-42.667c0-4.719,3.823-8.533,8.533-8.533c4.71,0,8.533,3.814,8.533,8.533v42.667h42.667
				c4.71,0,8.533,3.814,8.533,8.533S311.849,179.081,307.138,179.081z"/>
		</g>
	</g>
</g>
</svg>